<?xml version="1.0" encoding="UTF-8"?><svg id="Camada_1" xmlns="http://www.w3.org/2000/svg" xmlns:xlink="http://www.w3.org/1999/xlink" viewBox="0 0 200 200"><defs><style>.cls-1{fill:#fff;}.cls-2{fill:url(#Gradiente_sem_nome_7);}</style><linearGradient id="Gradiente_sem_nome_7" x1="0" y1="100" x2="200" y2="100" gradientUnits="userSpaceOnUse"><stop offset="0" stop-color="#1a1a1a"/><stop offset="1" stop-color="#000"/></linearGradient></defs><rect class="cls-2" width="200" height="200"/><path class="cls-1" d="m49.36,122.45c0-10.8,0-21.61,0-32.41,0-9.54,2.33-18.46,7.28-26.63,4.87-8.05,11.48-14.28,19.79-18.7,5.01-2.67,10.33-4.41,15.93-5.26,3.89-.59,7.8-.72,11.74-.4,6.88.56,13.36,2.43,19.46,5.64,6.54,3.44,12.07,8.11,16.57,13.96,4.6,5.97,7.7,12.64,9.34,20,.79,3.56,1.2,7.16,1.18,10.79-.04,9.76-2.61,18.81-7.83,27.08-3.86,6.1-8.81,11.14-14.8,15.16-.17.11-.34.22-.5.35-.57.45-.57.99-.02,1.44.11.09.24.17.36.26,6.54,4.35,11.86,9.88,15.8,16.68,1.33,2.3,2.41,4.75,3.5,7.18.8,1.78-.41,3.53-2.37,3.54-3.48.02-6.97.01-10.45,0-1.15,0-1.9-.6-2.49-1.57-1.15-1.88-2.25-3.8-3.58-5.55-3.18-4.2-7.18-7.45-11.86-9.87-2.79-1.44-5.71-2.56-8.8-3.13-2.05-.38-4.13-.73-6.21-.75-11.51-.1-23.01-.09-34.52-.12-1.86,0-2.73,1.26-2.72,2.72.05,5.1.02,10.19.02,15.29,0,2-.98,2.98-2.96,2.98-2.96,0-5.93,0-8.89,0-1.98,0-2.97-.99-2.97-2.98,0-11.9,0-23.8,0-35.7Zm14.83-17.05h0c0,5.8.02,11.6-.01,17.4,0,1.46,1.09,2.58,2.58,2.57,11.27-.02,22.53.03,33.8-.04,2.19-.01,4.4-.27,6.55-.7,6.79-1.34,12.75-4.41,17.7-9.26,7.95-7.79,11.61-17.28,10.96-28.41-.19-3.25-.85-6.41-1.96-9.47-3.17-8.66-8.82-15.2-16.91-19.62-4.11-2.24-8.52-3.56-13.17-4.03-2.62-.27-5.25-.24-7.87.06-2.93.34-5.78,1.02-8.54,2.08-7.52,2.91-13.45,7.78-17.73,14.61-3.47,5.53-5.29,11.59-5.37,18.12-.07,5.56-.01,11.12-.01,16.68Z"/><path class="cls-1" d="m79.14,98.46c0-2.78,0-5.56,0-8.34,0-2.8.41-5.52,1.43-8.14,1.35-3.44,3.45-6.33,6.3-8.66,2.67-2.18,5.71-3.64,9.1-4.27,5.93-1.1,11.4.08,16.3,3.62,3.69,2.67,6.21,6.21,7.6,10.54.99,3.09,1.21,6.25.71,9.48-.69,4.41-2.59,8.2-5.69,11.37-3.23,3.3-7.14,5.36-11.74,6-1.46.2-2.95.28-4.42.29-5.48.03-10.97.02-16.45,0-.44,0-.9-.02-1.32-.13-1.13-.29-1.82-1.29-1.82-2.61,0-3.06,0-6.11,0-9.17Z"/></svg>