<?xml version="1.0" encoding="UTF-8"?><svg id="Camada_1" xmlns="http://www.w3.org/2000/svg" viewBox="0 0 88.85 108.4"><defs><style>.cls-1{fill:#172147;}.cls-2{fill:none;stroke:#fff;stroke-miterlimit:10;stroke-width:.24px;}.cls-3{fill:#76738b;}.cls-4{fill:#fefefe;}</style></defs><path class="cls-4" d="m44.46,54.25q.03-.57.63-.57c.52,0,1.03.01,1.55,0,.23,0,.31.04.3.29-.02.65,0,1.3,0,1.95,0,.08,0,.16,0,.24,0,.87,0,1.75,0,2.62,0,4.13,0,8.27,0,12.4,0,.2-.03.28-.26.28-.59-.02-1.19-.01-1.78,0-.19,0-.25-.05-.25-.24,0-.45,0-.9-.01-1.35.05-.02.05-.07.02-.08-.07-.03-.05.05-.08.08-.02.02-.05.03-.07.05-.55.71-1.25,1.2-2.09,1.52-.92.34-1.86.39-2.83.28-.79-.09-1.51-.35-2.2-.75-.66-.38-1.17-.93-1.67-1.49-.34-.38-.59-.84-.81-1.3-.48-1.02-.67-2.1-.65-3.23.02-1.08.23-2.11.74-3.07.5-.97,1.21-1.76,2.09-2.4.63-.46,1.35-.73,2.1-.88.62-.12,1.25-.16,1.89-.08.68.08,1.33.26,1.93.59.54.29.94.75,1.39,1.15.03.02,0,.09.06.08.04-.01.05-.06,0-.08,0-.1.02-.21.02-.31,0-1.54,0-3.08,0-4.62,0-.3-.01-.59-.02-.89.02-.06.05-.11,0-.17Zm-4.41,6.63c-.97,0-2.1.72-2.83,2.07-.52.96-.59,2-.42,3.07.13.83.52,1.55,1.08,2.15.63.67,1.42,1.06,2.37,1.13,1.45.1,2.61-.38,3.44-1.58.81-1.16.92-2.47.63-3.8-.36-1.64-1.67-3.05-4.28-3.04Z"/><path class="cls-4" d="m51.83,59.04c.37-.13.72-.28,1.1-.37.87-.21,1.75-.21,2.64-.1,1.08.12,2,.57,2.78,1.29.75.69,1.35,1.49,1.63,2.51.08.28.22.57.31.86.07.24.04.51.14.75,0,.06,0,.13-.01.19.05.08.06.18.06.27.01.46,0,.92.04,1.38.02.26-.07.31-.32.31-2.98,0-5.96,0-8.95,0h-.33c.13.68.37,1.29.79,1.8.72.87,1.66,1.35,2.81,1.37,1.25.02,2.41-.22,3.38-1.09.12-.1.18-.09.28.02.44.46.89.9,1.33,1.36.05.05.07.12.12.16.1.08.05.13-.01.19-.66.67-1.46,1.13-2.35,1.42-.48.16-.97.24-1.46.32-.9.14-1.79.14-2.67-.07-.85-.2-1.62-.56-2.32-1.1-.89-.67-1.55-1.52-2-2.5-.38-.83-.64-1.72-.57-2.66.03-.49-.02-.98.07-1.48.15-.83.4-1.6.83-2.32.6-1.02,1.41-1.82,2.45-2.4.11.03.17-.05.23-.11Zm2.89,1.79c-.08-.01-.17-.02-.25.01-.15-.03-.3-.02-.46,0-1.56.26-2.67,1.31-3.05,2.86-.07.3.01.32.27.32,1.38,0,2.76,0,4.14,0,.75,0,1.5,0,2.24,0,.1,0,.25.05.21-.16-.08-.37-.15-.75-.35-1.08-.02-.13-.08-.25-.16-.35-.56-1.03-1.41-1.57-2.59-1.6Z"/><path class="cls-4" d="m80.28,62.31c.08.4.24.78.3,1.19.12.82.16,1.64.15,2.47,0,.18-.11.14-.21.14-.55,0-1.09,0-1.64,0-1.47,0-2.93,0-4.4,0-.12,0-.25.01-.37.02l-.3-.02h-2.67c.17.69.39,1.34.88,1.85,0,.06.04.09.1.1.44.59,1.05.94,1.74,1.08,1.56.33,3.02.11,4.27-.96.09-.08.15-.11.25,0,.54.53,1.09,1.05,1.65,1.58-1.15,1.1-2.43,1.72-3.93,1.88-.36.04-.71.11-1.07.11-.98.01-1.91-.17-2.81-.56-.04-.02-.09,0-.14,0-.06-.06-.11-.15-.22-.14-.06-.05-.12-.1-.18-.14-1.91-1.18-2.98-2.91-3.21-5.12-.11-1.06,0-2.13.39-3.14.69-1.8,1.89-3.11,3.71-3.81.86-.33,1.75-.37,2.66-.34.96.03,1.83.29,2.63.8,1.08.69,1.82,1.68,2.33,2.85,0,.07.03.12.08.16Zm-2.32,1.27c-.16-.85-.56-1.57-1.22-2.12-.84-.7-1.84-.78-2.84-.54-1.49.35-2.34,1.37-2.72,2.81-.06.23-.03.3.23.3,1.87-.01,3.74,0,5.61,0,.12,0,.25-.02.37-.04.07.02.15.04.22.04q.52.05.36-.45Z"/><path class="cls-4" d="m16.01,71.36c-1,.3-2.03.47-3.07.39-1.38-.11-2.62-.58-3.68-1.5-1.19-1.04-1.92-2.35-2.21-3.89-.13-.69-.12-1.41-.04-2.12.18-1.64.86-3.02,2.06-4.14,1.06-.99,2.3-1.53,3.77-1.59,1.08-.04,2.12.06,3.1.55.06.07.15.09.24.11.06.05.12.1.18.14,1.27.85,2.1,2.03,2.55,3.48.31,1.01.31,2.04.34,3.08,0,.21-.05.27-.26.27-.93,0-1.86,0-2.79,0-.06,0-.12,0-.19,0-2.05,0-4.1,0-6.15,0-.14,0-.21,0-.17.18.4,1.64,1.66,2.93,3.56,2.99.98.03,1.92-.11,2.77-.63.07-.02.14-.05.17-.12.19-.06.32-.2.46-.33.1-.09.15-.09.26,0,.55.52,1.11,1.03,1.66,1.53-.73.79-1.56,1.21-2.4,1.6-.05-.02-.1,0-.15.02Zm.19-7.36c.39.05.39.05.31-.33-.06-.29-.15-.57-.27-.84,0-.13-.08-.21-.16-.29-.12-.37-.37-.65-.63-.91-.86-.85-1.93-.95-3.03-.72-1.4.3-2.51,1.53-2.76,2.95-.03.19.07.16.17.16,2.06,0,4.12,0,6.18,0,.07,0,.13,0,.2-.01Z"/><path class="cls-4" d="m1.47,48.91c0,1.56-.01,3.13,0,4.69,0,.3-.09.37-.37.35-.31-.02-.61-.01-.92,0-.14,0-.2-.04-.18-.18,0-.05,0-.1,0-.14,0-4.2,0-8.4,0-12.61,0-.23.04-.35.29-.3.02,0,.04,0,.06,0,.34,0,.8-.12,1,.06.21.18.04.65.06.99,0,.1,0,.2,0,.38.28-.32.5-.61.78-.83.61-.48,1.3-.75,2.09-.77.82-.02,1.63.02,2.37.41,1.5.78,2.32,2.04,2.57,3.69.16,1.11.03,2.2-.49,3.21-.73,1.42-1.86,2.31-3.48,2.5-1.49.18-2.74-.22-3.68-1.45,0-.06-.04-.09-.09-.08-.03,0-.03.06,0,.1Zm6.28-3.86c-.05-.71-.24-1.2-.53-1.65-.61-.94-1.46-1.41-2.6-1.42-1.1,0-1.95.41-2.54,1.33-.63.99-.77,2.07-.47,3.2.19.72.54,1.35,1.14,1.81.59.46,1.26.6,2.02.58,1.41-.03,2.49-1.07,2.84-2.32.16-.56.21-1.14.13-1.55Z"/><path class="cls-4" d="m61.54,63.92c0-1.59,0-3.18.01-4.77q0-.39.4-.39c.57,0,1.15,0,1.72,0,.18,0,.25.04.24.24-.01.5,0,1.01,0,1.6.19-.27.41-.4.53-.63.11-.02.17-.09.23-.17.61-.48,1.27-.87,2.03-1.09.54-.16,1.09-.16,1.63-.24.2-.03.16.11.16.22,0,.66,0,1.32,0,1.99,0,.2-.06.25-.26.26-2.5.13-4.24,1.97-4.24,4.48,0,1.9,0,3.8,0,5.7,0,.25-.04.35-.32.34-.6-.02-1.21-.02-1.81,0-.26,0-.33-.06-.33-.33,0-2.34,0-4.68,0-7.02,0-.06,0-.12,0-.19Z"/><path class="cls-4" d="m15.95,50.16c-2.68.88-5.33-.7-5.93-3.44-.38-1.72-.1-3.31,1.07-4.67.81-.95,1.84-1.46,3.12-1.5.87-.03,1.68.07,2.43.54.08.06.16.11.24.17.28.24.55.49.76.8,0,.05.04.1.09.09.03,0,.03-.06.01-.1,0-.37,0-.75,0-1.12,0-.14.02-.21.19-.2.34.01.69.01,1.03,0,.16,0,.18.06.18.2,0,3.02,0,6.04,0,9.05,0,.14-.03.2-.19.2-.33-.01-.67-.01-1.01,0-.16,0-.22-.04-.21-.2.01-.35,0-.71,0-1.06.01-.04.03-.09-.02-.12,0,0-.03.03-.05.05-.4.52-.87.95-1.47,1.23-.08.03-.18.02-.24.09Zm.29-7.65c0-.06-.05-.07-.09-.08-.04-.04-.08-.08-.13-.1-.93-.47-1.89-.49-2.83-.06-.99.45-1.52,1.29-1.74,2.32-.27,1.26-.01,2.4.83,3.37.63.72,1.45,1.02,2.42.95.47-.03.91-.1,1.31-.35.07-.02.13-.05.17-.12.29-.12.5-.35.68-.6.97-1.36,1.03-2.8.32-4.28-.2-.42-.48-.83-.94-1.04Z"/><path class="cls-4" d="m2.41,60.58c.5-.58,1.02-1.03,1.62-1.37.76-.43,1.57-.69,2.45-.69.17,0,.38-.16.48-.02.09.13.03.35.03.53,0,.53-.01,1.06,0,1.58,0,.23-.05.31-.3.32-1.48.08-2.65.73-3.49,1.96-.49.72-.71,1.53-.71,2.39,0,1.96,0,3.92,0,5.87,0,.24-.07.3-.3.3-.63-.02-1.27,0-1.9,0-.17,0-.25-.02-.25-.23,0-4.08,0-8.16,0-12.24,0-.17.04-.23.22-.23.64.01,1.29,0,1.93,0,.17,0,.21.06.21.22,0,.51,0,1.02,0,1.61Z"/><path class="cls-4" d="m34.62,47.91c-.2-.47-.38-.94-.49-1.44-.07-.29-.05-.59-.07-.88-.13-1.95.97-3.86,2.71-4.68.55-.26,1.14-.36,1.75-.37.76-.01,1.5.04,2.17.42,1.18.66,1.86,1.69,2.16,3,.14.61.16,1.22.19,1.84.01.27-.08.31-.32.3-2.26,0-4.53,0-6.79-.01-.25,0-.3.05-.23.3.37,1.36,1.17,2.29,2.61,2.49,1.13.16,2.2-.06,3.1-.83.12-.11.19-.14.31,0,.23.27.48.52.73.77.12.11.11.18,0,.29-.8.72-1.75,1.08-2.8,1.23-.41.06-.82.05-1.23.05-.12-.05-.24-.04-.36-.03-.73-.14-1.42-.38-2.02-.83-.45-.34-.81-.76-1.15-1.2-.07-.12-.13-.24-.2-.36-.01-.03-.02-.07-.06-.07h.01Zm6.84-3.16c.02-.19-.03-.34-.07-.5-.53-2-1.72-2.54-3.46-2.19-1.22.24-1.91,1.13-2.22,2.31-.1.38-.08.38.32.38,1.51,0,3.01,0,4.52,0h.92Z"/><path class="cls-4" d="m52.24,45.46c.03-1.87.75-3.33,2.3-4.32.65-.42,1.37-.59,2.15-.6.79-.01,1.55.05,2.26.42.89.47,1.55,1.18,2.04,2.05.49.88.63,1.84.56,2.83-.02.27.02.59-.2.82-.09.1.02.18,0,.29-.14.65-.5,1.19-.89,1.71-.43.56-.93,1.01-1.57,1.31-.85.39-1.74.5-2.67.38-2.1-.27-3.49-2.03-3.84-3.66-.09-.43-.09-.85-.14-1.23Zm1.47-.04c-.02.41.04.8.16,1.18.19.63.51,1.18,1.01,1.6.81.7,1.76.85,2.78.64.85-.18,1.49-.67,1.9-1.41.38-.69.57-1.46.49-2.27-.06-.65-.22-1.27-.57-1.82-.98-1.58-3.08-1.68-4.26-.9-1.05.7-1.48,1.75-1.51,2.98Z"/><path class="cls-3" d="m64.68,59.79c-.06.08-.13.15-.23.17,0-4.36,0-8.71,0-13.07,0-1.8-.01-3.61,0-5.41.01-1.54-.66-2.67-1.94-3.48-2.23-1.41-4.46-2.84-6.68-4.26-3.66-2.35-7.33-4.7-10.99-7.04-2.09-1.34-4.19-2.68-6.29-4.01-2.97-1.9-5.94-3.8-8.92-5.7-1.06-.68-1.75-1.61-1.9-2.86-.18-1.48.29-2.77,1.54-3.65,1.44-1.02,2.98-1.89,4.48-2.82,3.59-2.24,7.19-4.46,10.78-6.7.53-.33,1.05-.67,1.67-.83,1.14-.29,2.21-.11,3.2.52,3.35,2.14,6.69,4.28,10.03,6.42,1.08.69,2.14,1.4,3.21,2.09,1.45.93,2.9,1.86,4.35,2.79,1.19.76,2.37,1.52,3.56,2.27,1.32.84,2.65,1.68,3.97,2.53,1.27.81,2.53,1.63,3.79,2.44,1.18.76,2.35,1.51,3.54,2.26,1.28.82,2.57,1.63,3.86,2.44.6.39,1.24.74,1.79,1.19.59.48,1,1.12,1.2,1.87.16.59.17,1.2.17,1.8,0,8.59,0,17.18,0,25.76,0,.98-.21,1.87-.8,2.66-.3.4-.65.75-1.08,1.01-2.17,1.34-4.33,2.69-6.5,4.04-.06.03-.11.08-.18.07-.05-.04-.08-.1-.08-.16.09,0,.16-.05.23-.1,2.09-1.29,4.17-2.6,6.26-3.88,1.36-.83,1.98-2.04,1.98-3.61,0-8.8,0-17.6,0-26.4,0-1.42-.6-2.53-1.79-3.3-2.63-1.69-5.27-3.37-7.91-5.06-4.19-2.68-8.39-5.36-12.58-8.05-5.68-3.64-11.36-7.28-17.05-10.91-1.42-.91-2.85-.9-4.28-.01-5.1,3.16-10.2,6.33-15.3,9.5-.43.27-.86.57-1.15.99-.57.8-.85,1.69-.73,2.69.14,1.12.64,2.02,1.58,2.65,1.03.69,2.08,1.35,3.13,2.02,1.42.91,2.84,1.81,4.27,2.72,1.66,1.06,3.32,2.13,4.98,3.19,1.64,1.05,3.3,2.09,4.93,3.16,1.65,1.07,3.3,2.12,4.96,3.17,1.66,1.05,3.32,2.1,4.96,3.17,1.54,1.01,3.11,1.96,4.65,2.96.67.43,1.38.8,1.98,1.33.95.84,1.33,1.92,1.32,3.18-.02,5.95,0,11.9,0,17.85,0,.13-.04.27.05.39Z"/><path class="cls-4" d="m26.4,42.7c.51-.75,1.12-1.38,1.95-1.77.55-.26,1.13-.37,1.74-.39.83-.02,1.62.07,2.36.46.39.21.74.47,1.07.77.12.11.13.18,0,.29-.26.25-.51.5-.74.77-.13.15-.21.12-.32,0-1.21-1.26-3.74-1.18-4.79.62-.02.03-.03.07-.04.11-.03.06-.07.12-.1.18-.46.92-.53,1.87-.24,2.86.5,1.69,1.98,2.64,3.72,2.28.64-.13,1.17-.46,1.57-.9.31.29.61.57.91.85.13.12.14.2,0,.33-1.12,1.05-2.44,1.42-3.93,1.19-1.46-.22-2.54-1.02-3.23-2.29-.92-1.68-.89-3.41-.06-5.13.04-.07.08-.15.12-.22Z"/><path class="cls-3" d="m16.01,71.36s.09-.05.15-.02c.07.14.04.28.04.42,0,7.68,0,15.35,0,23.03,0,.09,0,.17,0,.26-.04.4.03.77.14,1.15.73,2.44,3.42,3.5,5.58,2.18,1.8-1.1,3.58-2.22,5.37-3.33,2.15-1.34,4.31-2.68,6.46-4.01,3-1.86,6-3.72,9-5.58.58-.36,1.14-.75,1.82-.9,1.16-.26,2.22-.03,3.22.61,1.38.89,2.76,1.77,4.14,2.65,1.43.91,2.87,1.81,4.29,2.73,1.37.89,2.75,1.77,4.14,2.65,1.62,1.02,3.22,2.06,4.83,3.1,1.58,1.01,3.15,2.03,4.73,3.04,1.56.99,3.12,1.98,4.67,2.98,1.31.84,2.6,1.69,3.91,2.53,1.43.92,2.85,1.83,4.29,2.74.77.48,1.6.77,2.54.64.87-.12,1.64-.47,2.26-1.09.78-.78,1.1-1.75,1.1-2.84,0-6.42,0-12.84,0-19.26,0-1.48-.59-2.62-1.85-3.42-.6-.38-1.19-.77-1.79-1.15-3.51-2.25-7.03-4.49-10.54-6.74-.71-.45-1.46-.85-2.01-1.52-.28-.34-.53-.7-.62-1.14.11-.01.15.08.22.14.21.6.57,1.1,1.1,1.46,1.42.98,2.89,1.88,4.35,2.8,1.09.69,2.16,1.4,3.25,2.09,1.8,1.15,3.6,2.28,5.39,3.44.55.35,1.13.66,1.58,1.16.5.57.85,1.2,1,1.96.08.42.09.84.09,1.26,0,6.31,0,12.63,0,18.94,0,.95-.23,1.83-.83,2.55-1.32,1.6-3.43,2.05-5.24.89-2.68-1.71-5.35-3.43-8.03-5.14-3.58-2.29-7.15-4.58-10.73-6.87-3.02-1.93-6.05-3.86-9.07-5.8-2.44-1.56-4.88-3.13-7.33-4.68-1.47-.92-2.94-.85-4.39.07-1.08.68-2.17,1.35-3.26,2.03-1.2.75-2.4,1.51-3.61,2.27-1.01.63-2.04,1.25-3.05,1.88-1.21.75-2.41,1.51-3.61,2.26-1,.62-2,1.23-3,1.85-1.23.76-2.45,1.55-3.69,2.3-.47.28-.93.59-1.42.84-2.22,1.1-5.01-.29-5.46-2.73-.07-.39-.1-.77-.1-1.17,0-7.73,0-15.47,0-23.2,0-.1,0-.19-.01-.29Z"/><path class="cls-4" d="m48.83,42.05c.17-.16.33-.3.5-.45.71-.62,1.52-1.03,2.48-1.06.41-.01.41-.02.41.41,0,.26-.01.52,0,.78.01.19-.05.24-.24.25-.87.04-1.59.39-2.19,1.01-.64.66-.92,1.47-.92,2.37,0,1.51,0,3.01,0,4.52,0,.23-.06.3-.28.28-.32-.02-.65-.01-.98,0-.15,0-.22-.03-.22-.2,0-3.01,0-6.03,0-9.04,0-.16.04-.22.21-.21.35.01.69.01,1.04,0,.16,0,.19.05.19.2,0,.38,0,.76,0,1.14Z"/><path class="cls-4" d="m23.55,40.99c.44-.16.86-.35,1.33-.42.21-.03.42,0,.63-.02.11,0,.12.06.12.14,0,.36,0,.73,0,1.09,0,.1-.02.17-.14.15-.08-.01-.15.01-.21.07-.1,0-.2-.02-.29.05-.8.06-1.41.48-1.9,1.05-.57.66-.81,1.47-.81,2.35.02,1.5,0,2.99,0,4.49,0,.18-.04.25-.23.24-.34-.02-.69-.01-1.04,0-.15,0-.2-.03-.2-.19.01-.28,0-.56,0-.83,0-2.71,0-5.43,0-8.14,0-.22.05-.3.28-.28.32.02.63.01.95,0,.15,0,.2.05.19.2,0,.37,0,.75,0,1.12,0,.01,0,.03,0,.04.01,0,.03-.02.04-.03.38-.33.71-.72,1.15-.98.05,0,.1-.02.11-.08Z"/><path class="cls-4" d="m45.56,45.45c0,1.47,0,2.93,0,4.4,0,.27-.08.34-.33.32-.31-.02-.61-.01-.92,0-.15,0-.21-.03-.21-.2,0-3.02,0-6.04,0-9.06,0-.16.06-.19.2-.19.35,0,.69.02,1.04,0,.2-.01.23.07.23.25,0,1.5,0,2.99,0,4.49Z"/><path class="cls-4" d="m44.85,36.69c.59,0,.94.33.93.9,0,.52-.41.93-.92.94-.51,0-.95-.44-.94-.95,0-.54.37-.88.93-.88Z"/><path class="cls-3" d="m27.53,43.72c.03-.06.07-.12.1-.18,1.17.74,2.34,1.48,3.52,2.23,1.07.68,2.13,1.36,3.2,2.04.08.05.16.15.28.1,0,0-.01,0-.01,0,0,.04.03.06.06.07.07.12.13.24.2.36-.11,0-.17-.07-.25-.12-1.88-1.2-3.76-2.41-5.65-3.61-.48-.3-.93-.64-1.44-.88Z"/><path class="cls-3" d="m15.95,50.16c.07-.07.16-.07.24-.09,0,2.97,0,5.95,0,8.92,0,.06-.01.11-.02.17-.09-.02-.17-.03-.24-.11.12-.07.08-.19.08-.29,0-2.77,0-5.55,0-8.32,0-.1.04-.22-.07-.29Z"/><path class="cls-3" d="m38.05,50.36c.12-.01.24-.02.36.03.7.46,1.39.91,2.09,1.37,1.24.8,2.48,1.6,3.72,2.4.07.05.16.07.24.1.04.06,0,.12,0,.17-.1.06-.18,0-.26-.06-.19-.13-.37-.27-.56-.39-1.4-.9-2.81-1.79-4.2-2.69-.46-.3-.96-.55-1.38-.92Z"/><path class="cls-3" d="m23.55,40.99c-.01.06-.06.07-.11.08-.35-.22-.7-.45-1.06-.67-.46-.29-.92-.58-1.45-.73-1.39-.41-2.98.1-3.89,1.23-.08.1-.19.2-.17.35-.08-.06-.16-.11-.24-.17.21-.14.32-.37.5-.54,1.09-1.05,2.36-1.42,3.83-1.05.36.09.69.27,1,.47.47.3.95.59,1.42.88.07.04.11.1.16.16Z"/><path class="cls-3" d="m51.83,59.04c-.07.06-.13.14-.23.11-.03-.07-.08-.12-.15-.17-1.05-.67-2.1-1.34-3.15-2-.45-.28-.86-.6-1.35-.82,0-.08,0-.16,0-.24.66.35,1.27.79,1.9,1.18.96.6,1.91,1.22,2.86,1.83.05.03.08.08.12.11Z"/><path class="cls-3" d="m73.81,66.12l.3.02c-.15.21-.39.29-.6.42-.6.38-1.02.92-1.39,1.52-.06-.01-.09-.04-.1-.1.17-.43.47-.77.79-1.1.3-.3.69-.47.99-.76Z"/><path class="cls-3" d="m24.99,42.04c.09-.06.19-.05.29-.05.35.27.71.51,1.11.7-.04.07-.08.15-.12.22-.04-.1-.13-.13-.21-.18-.36-.23-.71-.46-1.07-.69Z"/><path class="cls-3" d="m61.54,63.92c0,.06,0,.12,0,.19-.38.06-.76.06-1.13.06,0-.06,0-.13.01-.19.37.05.74-.02,1.11-.05Z"/><path class="cls-3" d="m1.47,48.91s-.03-.09,0-.1c.05-.01.08.03.09.08-.03,0-.06,0-.1.01Z"/><path class="cls-2" d="m60.41,64.16c.38,0,.76,0,1.13-.06,0,2.34,0,4.68,0,7.02,0,.27.07.33.33.33.6-.02,1.21-.02,1.81,0,.28.01.32-.09.32-.34,0-1.9,0-3.8,0-5.7,0-2.51,1.74-4.35,4.24-4.48.2-.01.26-.06.26-.26-.01-.66,0-1.32,0-1.99,0-.11.04-.25-.16-.22-.54.08-1.1.08-1.63.24-.76.22-1.42.61-2.03,1.09-.09-.12-.05-.26-.05-.39,0-5.95-.01-11.9,0-17.85,0-1.26-.38-2.34-1.32-3.18-.6-.53-1.31-.9-1.98-1.33-1.54-1-3.11-1.95-4.65-2.96-1.64-1.08-3.3-2.13-4.96-3.17-1.66-1.05-3.31-2.1-4.96-3.17-1.64-1.06-3.29-2.1-4.93-3.16-1.66-1.06-3.32-2.13-4.98-3.19-1.42-.91-2.85-1.81-4.27-2.72-1.05-.67-2.09-1.34-3.13-2.02-.95-.63-1.44-1.53-1.58-2.65-.13-1,.15-1.89.73-2.69.3-.41.72-.72,1.15-.99,5.1-3.17,10.2-6.33,15.3-9.5,1.43-.88,2.86-.89,4.28.01,5.68,3.63,11.36,7.28,17.05,10.91,4.19,2.68,8.39,5.36,12.58,8.05,2.64,1.69,5.28,3.36,7.91,5.06,1.19.77,1.79,1.88,1.79,3.3,0,8.8,0,17.6,0,26.4,0,1.57-.62,2.78-1.98,3.61-2.09,1.28-4.17,2.59-6.26,3.88-.07.04-.14.1-.23.1-.51-1.17-1.25-2.15-2.33-2.85-.8-.51-1.67-.77-2.63-.8-.91-.03-1.8.01-2.66.34-1.82.7-3.02,2.01-3.71,3.81-.39,1.01-.51,2.08-.39,3.14.24,2.21,1.3,3.94,3.21,5.12.06.04.12.09.18.14.09.44.35.8.62,1.14.54.67,1.3,1.07,2.01,1.52,3.51,2.25,7.02,4.49,10.54,6.74.6.38,1.19.77,1.79,1.15,1.25.8,1.85,1.94,1.85,3.42,0,6.42,0,12.84,0,19.26,0,1.09-.32,2.06-1.1,2.84-.62.62-1.38.97-2.26,1.09-.94.13-1.77-.15-2.54-.64-1.44-.9-2.86-1.82-4.29-2.74-1.31-.84-2.6-1.69-3.91-2.53-1.56-1-3.12-1.98-4.67-2.98-1.58-1.01-3.15-2.02-4.73-3.04-1.61-1.03-3.21-2.07-4.83-3.1-1.38-.88-2.77-1.75-4.14-2.65-1.42-.92-2.86-1.82-4.29-2.73-1.38-.88-2.76-1.76-4.14-2.65-.99-.64-2.06-.87-3.22-.61-.68.15-1.24.54-1.82.9-3,1.86-6,3.72-9,5.58-2.15,1.34-4.31,2.68-6.46,4.01-1.79,1.11-3.57,2.23-5.37,3.33-2.17,1.32-4.86.26-5.58-2.18-.11-.38-.18-.76-.14-1.15,0-.09,0-.17,0-.26,0-7.68,0-15.35,0-23.03,0-.14.03-.29-.04-.42.85-.39,1.67-.81,2.4-1.6-.55-.51-1.11-1.01-1.66-1.53-.1-.1-.16-.1-.26,0-.14.13-.27.27-.46.33,0-.8,0-1.6,0-2.4.93,0,1.86-.02,2.79,0,.22,0,.27-.05.26-.27-.03-1.04-.03-2.07-.34-3.08-.45-1.46-1.28-2.63-2.55-3.48-.06-.04-.12-.09-.18-.14,0-.06.02-.11.02-.17,0-2.97,0-5.95,0-8.92.6-.28,1.07-.71,1.47-1.23.02.02.05.05.07.07,0,.35.01.71,0,1.06,0,.17.05.21.21.2.33-.01.67-.01,1.01,0,.16,0,.19-.05.19-.2,0-3.02,0-6.04,0-9.05,0-.14-.02-.21-.18-.2-.34.01-.69.01-1.03,0-.16,0-.19.06-.19.2,0,.37,0,.75,0,1.12-.03,0-.07,0-.1,0-.21-.31-.47-.56-.76-.8-.02-.15.09-.25.17-.35.9-1.13,2.5-1.64,3.89-1.23.52.15.99.45,1.45.73.36.22.71.45,1.06.67-.44.26-.77.65-1.15.98,0-.02-.02-.02-.04-.01,0-.37,0-.75,0-1.12,0-.15-.04-.2-.19-.2-.32.01-.63.02-.95,0-.23-.02-.28.06-.28.28,0,2.71,0,5.43,0,8.14,0,.28,0,.56,0,.83,0,.16.05.19.2.19.35,0,.69-.02,1.04,0,.19,0,.23-.06.23-.24,0-1.5,0-2.99,0-4.49,0-.89.23-1.69.81-2.35.49-.57,1.11-.99,1.9-1.05.36.23.71.46,1.07.69.08.05.17.08.21.18-.83,1.72-.86,3.44.06,5.13.7,1.27,1.78,2.07,3.23,2.29,1.5.23,2.82-.14,3.93-1.19.14-.13.13-.21,0-.33-.31-.28-.6-.56-.91-.85-.41.44-.93.77-1.57.9-1.74.35-3.22-.59-3.72-2.28-.29-.99-.22-1.94.24-2.86.51.24.97.58,1.44.88,1.89,1.2,3.77,2.41,5.65,3.61.08.05.15.13.25.12.35.43.7.86,1.15,1.2.6.45,1.29.69,2.02.83.42.37.91.62,1.38.92,1.4.91,2.8,1.8,4.2,2.69.19.12.38.26.56.39.08.06.15.12.26.06,0,.3.02.59.02.89,0,1.54,0,3.08,0,4.62,0,.1-.01.21-.02.31-.02,0-.04,0-.06,0-.45-.4-.85-.85-1.39-1.15-.61-.33-1.25-.51-1.93-.59-.64-.07-1.27-.04-1.89.08-.75.15-1.47.42-2.1.88-.88.64-1.58,1.43-2.09,2.4-.5.96-.71,1.99-.74,3.07-.02,1.13.16,2.21.65,3.23.22.46.47.92.81,1.3.5.55,1.01,1.1,1.67,1.49.68.4,1.4.66,2.2.75.97.11,1.91.06,2.83-.28.84-.31,1.54-.81,2.09-1.52.02-.02.04-.03.07-.05.02,0,.04,0,.07,0,0,.45.02.9.01,1.35,0,.19.06.25.25.24.59-.01,1.19-.02,1.78,0,.23,0,.26-.08.26-.28,0-4.13,0-8.27,0-12.4,0-.87,0-1.75,0-2.62.49.21.9.54,1.35.82,1.06.66,2.1,1.34,3.15,2,.07.04.12.1.15.17-1.04.57-1.84,1.38-2.45,2.4-.43.72-.68,1.49-.83,2.32-.09.5-.04.99-.07,1.48-.07.95.19,1.83.57,2.66.45.99,1.11,1.83,2,2.5.71.54,1.47.9,2.32,1.1.88.21,1.77.2,2.67.07.5-.08.99-.16,1.46-.32.89-.29,1.69-.75,2.35-1.42.07-.07.12-.12.01-.19-.05-.04-.07-.11-.12-.16-.44-.45-.89-.9-1.33-1.36-.1-.1-.16-.12-.28-.02-.96.86-2.13,1.11-3.38,1.09-1.15-.02-2.09-.5-2.81-1.37-.42-.51-.66-1.13-.79-1.8h.33c2.98,0,5.97,0,8.95,0,.24,0,.34-.04.32-.31-.03-.46-.03-.92-.04-1.38,0-.1,0-.19-.06-.27Zm-36.47,7.6c.28-.02.55-.02.82-.05.88-.09,1.66-.39,2.38-.88,1.17-.81,1.81-2.37,1.52-3.77-.24-1.13-.9-1.96-1.88-2.55-.78-.46-1.65-.68-2.51-.93-.45-.13-.91-.24-1.3-.52-.32-.23-.59-.53-.56-.93.06-.64.41-1.1,1.04-1.32.3-.11.61-.05.91-.05.66,0,1.19.27,1.52.86.07.13.15.13.24.09.63-.27,1.27-.49,1.93-.68.11-.03.21-.09.13-.27-.37-.8-.93-1.4-1.72-1.79-.88-.43-1.81-.55-2.79-.47-1.21.09-2.22.51-2.97,1.48-.66.85-.85,1.82-.66,2.87.13.71.51,1.28,1.06,1.78.46.42.97.73,1.52.95.82.33,1.7.5,2.51.87,1.15.52,1.44,1.48.55,2.39-.55.57-1.26.66-2.01.62-.74-.04-1.29-.41-1.66-1.04-.11-.18-.21-.2-.39-.13-.62.24-1.24.47-1.87.69-.15.05-.17.08-.09.2.15.24.27.49.44.71.97,1.24,2.25,1.88,3.83,1.86Zm8.77-6.64c0-2.02,0-4.05,0-6.07,0-.21-.03-.3-.28-.29-.63.02-1.27.01-1.9,0-.19,0-.26.04-.26.25,0,4.07,0,8.13,0,12.2,0,.21.07.25.26.25.62-.01,1.25-.02,1.87,0,.27.01.31-.08.31-.32,0-2,0-4.01,0-6.01Zm.28-10.51c.1-.77-.64-1.51-1.53-1.51-.72,0-1.47.69-1.46,1.34,0,1.02.6,1.71,1.47,1.71.88,0,1.52-.65,1.52-1.54Z"/><path class="cls-3" d="m44.39,60.24s.04,0,.06,0c.05.03.05.07,0,.08-.05.02-.03-.06-.06-.08Z"/><path class="cls-3" d="m44.63,69.86h-.07s.02-.11.08-.08c.03.02.03.06-.02.08Z"/><path class="cls-3" d="m77.39,63.99c.15-.19.4-.26.58-.41q.16.5-.36.45c-.07,0-.15-.03-.22-.04Z"/><path class="cls-3" d="m16.02,68.65v-2.53c.05,0,.12,0,.18,0,0,.8,0,1.6,0,2.4-.03.07-.09.11-.17.12Z"/><path class="cls-3" d="m17.63,42.04s.07,0,.1,0c.02.04.02.09-.01.1-.05,0-.08-.04-.09-.09Z"/><path class="cls-3" d="m17.73,48.9s-.05-.05-.07-.07c.02-.02.04-.05.05-.05.05.03.03.08.02.12Z"/><path class="cls-1" d="m34.67,47.98s-.06-.02-.06-.07c.05,0,.05.03.06.07Z"/><path class="cls-3" d="m22.25,42.04s.03,0,.04.01c-.01,0-.03.02-.04.03,0-.01,0-.03,0-.04Z"/><path class="cls-4" d="m23.94,71.76c-1.58.01-2.86-.63-3.83-1.86-.17-.22-.29-.47-.44-.71-.08-.12-.05-.15.09-.2.63-.21,1.25-.45,1.87-.69.18-.07.28-.05.39.13.37.63.92,1,1.66,1.04.75.04,1.45-.05,2.01-.62.89-.91.6-1.87-.55-2.39-.82-.37-1.69-.54-2.51-.87-.55-.22-1.07-.53-1.52-.95-.55-.5-.92-1.07-1.06-1.78-.2-1.04,0-2.01.66-2.87.75-.97,1.77-1.39,2.97-1.48.98-.07,1.91.04,2.79.47.79.38,1.35.99,1.72,1.79.08.18-.01.24-.13.27-.66.19-1.3.41-1.93.68-.09.04-.17.03-.24-.09-.33-.58-.87-.85-1.52-.86-.3,0-.61-.06-.91.05-.63.22-.98.68-1.04,1.32-.04.4.24.7.56.93.39.28.85.39,1.3.52.86.24,1.73.46,2.51.93.98.59,1.65,1.42,1.88,2.55.29,1.4-.35,2.96-1.52,3.77-.72.5-1.5.8-2.38.88-.28.03-.55.03-.82.05Z"/><path class="cls-4" d="m32.71,65.12c0,2,0,4.01,0,6.01,0,.24-.04.33-.31.32-.62-.02-1.25-.01-1.87,0-.19,0-.26-.03-.26-.25,0-4.07,0-8.13,0-12.2,0-.21.07-.25.26-.25.63.01,1.27.02,1.9,0,.24,0,.28.08.28.29,0,2.02,0,4.05,0,6.07Z"/><path class="cls-4" d="m33,54.61c0,.89-.64,1.54-1.52,1.54-.87,0-1.47-.69-1.47-1.71,0-.65.75-1.34,1.46-1.34.89,0,1.63.74,1.53,1.51Z"/></svg>