<?xml version="1.0" encoding="UTF-8"?><svg id="Camada_1" xmlns="http://www.w3.org/2000/svg" viewBox="0 0 115.71 37.91"><defs><style>.cls-1{fill:#00264a;}.cls-2{fill:#333;}</style></defs><path class="cls-1" d="m31.3,20.66c0-2.42,0-4.83,0-7.25,0-.57.25-1,.74-1.27.51-.28.99-.19,1.45.14,1.65,1.19,3.3,2.38,4.96,3.54.56.39.78.89.78,1.57,0,3.88.02,7.76.07,11.64,0,.74-.32,1.28-1.09,1.63-1.48.68-2.95,1.4-4.42,2.1-1.1.52-2.2,1.03-3.29,1.55-1.06.5-2.12,1.02-3.18,1.53-1.27.6-2.53,1.2-3.8,1.8-.2.09-.39.21-.6.25-.41.08-.78-.03-1.12-.28-1.79-1.34-3.59-2.68-5.4-4.01-.5-.36-.7-.82-.69-1.43.01-2.74.01-5.47,0-8.21,0-.68.24-1.15.87-1.45,1.7-.8,3.4-1.62,5.09-2.44.99-.48,1.92.43,1.91,1.21-.03,3.12-.02,6.25-.01,9.37,0,.28.05.59.17.83.34.65,1.04.87,1.71.54.88-.43,1.73-.89,2.6-1.34.87-.46,1.75-.91,2.62-1.37.52-.28.79-.72.79-1.31,0-2.45,0-4.89,0-7.34-.05,0-.1,0-.15,0Z"/><path class="cls-1" d="m7.96,17.22c0,2.45,0,4.89,0,7.34,0,.82-.65,1.46-1.42,1.37-.27-.03-.56-.16-.79-.32-1.67-1.18-3.32-2.38-4.98-3.57-.5-.36-.74-.81-.74-1.44C.04,16.61.02,12.62,0,8.63c0-.51.23-.89.65-1.13.52-.3,1.06-.54,1.6-.8,2.43-1.16,4.85-2.31,7.28-3.47,2.16-1.03,4.31-2.06,6.47-3.08.48-.23.98-.21,1.44.13,1.82,1.36,3.64,2.72,5.46,4.07.46.34.68.76.68,1.37-.03,2.74-.03,5.47,0,8.21,0,.76-.32,1.21-.97,1.51-.74.34-1.47.71-2.21,1.06-.95.45-1.93.86-2.86,1.36-.72.39-1.83-.26-1.82-1.12,0-.29,0-.58,0-.87,0-2.85,0-5.69,0-8.54,0-.3-.05-.63-.18-.89-.39-.77-1.14-.89-1.92-.49-1.16.59-2.31,1.21-3.47,1.81-.54.28-1.08.55-1.61.85-.48.27-.72.69-.72,1.25,0,2.45,0,4.89,0,7.34.04,0,.09,0,.13,0Z"/><path class="cls-1" d="m112.04,16.6c1.01,0,1.98,0,2.96,0,.69,0,.69.01.69.7,0,4.14,0,8.28.01,12.42,0,.2-.06.26-.26.26-1.06,0-2.12,0-3.17,0-.22,0-.26-.1-.26-.29.01-1.37.01-2.75.02-4.12,0-.14,0-.27,0-.41-.58,0-1.11,0-1.65,0-1.7,0-3.39,0-5.09-.02-.21,0-.28.06-.28.27.01,1.4,0,2.81.02,4.21,0,.28-.06.36-.35.35-1.03-.02-2.06-.01-3.08,0-.21,0-.31-.03-.3-.28.02-.78.03-1.55.03-2.33,0-3.17,0-6.35,0-9.52,0-.32,0-.64-.03-.95-.01-.18.03-.29.23-.29,1.11,0,2.21,0,3.32,0,.16,0,.18.09.18.23-.01,1.46-.01,2.92-.03,4.39,0,.23.12.23.28.23,1.52,0,3.03,0,4.55,0,.63,0,1.26,0,1.89,0,.24,0,.3-.07.3-.31-.01-1.43-.01-2.87-.01-4.3,0-.07,0-.14.02-.25Z"/><path class="cls-2" d="m82.53,30.14c-1.47.02-2.93-.05-4.37-.39-.65-.15-1.3-.35-1.63-.99-.19-.37-.34-.79-.41-1.2-.08-.53-.05-1.07-.08-1.61-.01-.21.06-.28.27-.27.48.02.96.01,1.44,0,.21,0,.32.02.31.29-.01.31.04.64.14.93.2.64.77.86,1.33.91,1.29.12,2.58.18,3.88.2.74.01,1.48-.06,2.21-.15.38-.05.76-.19,1.1-.36.22-.12.42-.35.54-.57.28-.51.26-1.08.15-1.63-.07-.33-.29-.57-.63-.7-.79-.29-1.61-.35-2.44-.39-1.54-.07-3.09-.1-4.63-.21-.62-.04-1.24-.2-1.83-.39-.83-.27-1.29-.93-1.4-1.78-.14-1.06-.2-2.12.08-3.17.27-1,.94-1.59,1.96-1.84,2.02-.49,4.07-.48,6.12-.31.77.06,1.53.12,2.27.35,1.27.39,1.84.93,1.99,2.26.05.43.06.87.1,1.31.02.22-.04.31-.27.31-.46,0-.92-.01-1.38,0-.25.01-.32-.08-.32-.32,0-.69-.2-1.3-.91-1.56-.38-.14-.79-.26-1.19-.27-1.5-.03-3.01-.03-4.52,0-.36,0-.73.1-1.08.22-.55.19-.91.58-.94,1.18-.02.29,0,.6.07.89.16.64.71.82,1.27.93,1.26.24,2.54.26,3.81.28.5,0,1,.01,1.5.01.97,0,1.88.29,2.79.59,1.15.38,1.51,1.3,1.58,2.39.04.63.06,1.28,0,1.91-.18,1.63-.71,2.39-2.61,2.81-1.39.31-2.81.35-4.23.32Z"/><path class="cls-2" d="m61.26,16.6c.11,0,.2-.02.3-.02,4.01,0,8.02,0,12.04,0,.44,0,.43,0,.43.43,0,.43,0,.86,0,1.28,0,.12,0,.23,0,.37-.16,0-.27.02-.39.02-3.35,0-6.71,0-10.06,0-.41,0-.4,0-.39.41,0,.9,0,1.81,0,2.71,0,.07,0,.14,0,.23.09.01.18.03.27.03,3.26,0,6.53,0,9.79,0,.25,0,.33.06.31.33-.03.45-.03.9,0,1.34.02.28-.07.34-.33.34-3.22,0-6.45,0-9.67,0-.12,0-.23,0-.36,0,0,.74,0,1.43,0,2.12,0,.45.02.9-.01,1.34-.01.24.05.31.29.31.8-.01,1.6,0,2.4,0,2.6,0,5.21,0,7.81,0,.09,0,.18,0,.27,0,.14,0,.21.05.2.22-.01.55-.02,1.09,0,1.64,0,.2-.06.26-.26.26-4.12,0-8.24,0-12.36,0-.19,0-.28-.04-.28-.27,0-4.28,0-8.56,0-12.83,0-.08,0-.16.01-.26Z"/><path class="cls-2" d="m56.04,25.12c1.08,1.64,2.14,3.23,3.21,4.85-.08.02-.14.05-.19.05-.62,0-1.24,0-1.86,0-.24,0-.35-.16-.46-.32-.77-1.16-1.55-2.32-2.33-3.47-.54-.8-1.09-1.6-1.63-2.39-.31-.46-.14-.83.43-.87.61-.04,1.22-.02,1.82-.09.51-.06,1.02-.17,1.5-.34.51-.18.78-.59.76-1.16,0-.39-.02-.78,0-1.16.03-.81-.55-1.26-1.19-1.38-.69-.13-1.4-.22-2.11-.24-1.84-.03-3.67-.01-5.51-.02-.25,0-.31.07-.31.32.01,3.59,0,7.18.02,10.77,0,.21-.06.28-.27.27-.48-.02-.96-.01-1.44,0-.19,0-.26-.06-.26-.26.01-2.96.02-5.93.02-8.89,0-1.17,0-2.35-.01-3.52,0-.43.24-.72.67-.71,3.05.01,6.11.02,9.16.07.72.01,1.43.23,2.06.63.7.44,1.09,1.07,1.11,1.9.03.93.07,1.87,0,2.8-.12,1.73-1.16,2.88-2.91,3.09-.08,0-.15.03-.3.06Z"/><path class="cls-2" d="m91.36,23.28c0-2.03,0-4.06,0-6.09,0-.61,0-.61.6-.6.38,0,.76.01,1.14.01.17,0,.21.06.21.23,0,4.27-.01,8.54,0,12.8,0,.26-.05.35-.33.34-.46-.02-.92,0-1.38,0-.14,0-.27,0-.27-.22.02-2.03.02-4.06.03-6.09,0-.13,0-.26,0-.39Z"/></svg>